grf
version=1
nRows=12
nColumns=28
inDegrees=no
endheader
time	ground_force_1_vx	ground_force_1_vy	ground_force_1_vz	ground_force_1_px	ground_force_1_py	ground_force_1_pz	ground_moment_1_mx	ground_moment_1_my	ground_moment_1_mz	ground_force_2_vx	ground_force_2_vy	ground_force_2_vz	ground_force_2_px	ground_force_2_py	ground_force_2_pz	ground_moment_2_mx	ground_moment_2_my	ground_moment_2_mz	ground_force_3_vx	ground_force_3_vy	ground_force_3_vz	ground_force_3_px	ground_force_3_py	ground_force_3_pz	ground_moment_3_mx	ground_moment_3_my	ground_moment_3_mz
      0.00000000	     35.55544317	    -30.71802689	    732.72060520	    565.05254616	  -1019.66469453	      1.46173669	     -2.24322092	     -8.11151582	  -4444.67390323	      0.26333536	      1.35297781	      1.90067371	    117.44231832	  -1508.33316141	      0.32698887	     -0.03978053	     -0.51447917	    616.48671641	      1.53961884	     -0.41686855	      5.37010600	    403.43462061	   -302.09981251	      0.40512282	     -0.01159511	      0.08517681	     41.47600962
      0.01000000	     35.44231460	    -30.75870147	    732.58406093	    565.07718771	  -1019.53286731	      1.46148367	     -2.26597277	     -8.19378680	  -4489.75397058	      0.24515528	      1.41241647	      2.06967787	    209.22970297	  -1582.20240402	      0.27126531	     -0.03693347	     -0.47765826	    572.36519115	      1.25863487	     -0.50838964	      5.24946758	    360.02053448	   -275.47891767	      0.33831615	     -0.01457241	      0.10704783	     52.12588628
      0.02000000	     35.11357969	    -30.75236374	    732.48315369	    565.08910275	  -1019.74007504	      1.46185581	     -2.28484225	     -8.26201909	  -4527.14159204	      0.15006525	      1.26792496	      2.00967584	    128.86539226	  -1641.39062945	      0.21668499	     -0.02927406	     -0.37859963	    453.66587792	      1.36655083	     -0.17668059	      4.90069830	    375.58282982	   -277.71483109	      0.34725854	     -0.01735445	      0.12748455	     62.07734451
      0.03000000	     35.40940167	    -30.80259638	    733.01680698	    564.94261828	  -1019.75418850	      1.46195550	     -2.27418969	     -8.22349930	  -4506.03482153	     -0.04156760	      1.11382753	      1.75372949	    186.40467872	  -1543.98848182	      0.30168328	     -0.02215412	     -0.28651791	    343.32679028	      1.26263007	     -0.27008270	      5.09116728	    374.67761845	   -262.77155754	      0.31631736	      0.00813993	     -0.05979535	    -29.11675587
      0.04000000	     35.31849247	    -30.80201193	    732.60528554	    565.06644481	  -1019.56958452	      1.46155610	     -2.26459450	     -8.18880297	  -4487.02310276	      0.21954535	      1.27046020	      1.44528240	     35.06262164	  -1504.34689094	      0.32499977	     -0.04145810	     -0.53617506	    642.48432210	      1.24087661	     -0.65303511	      5.58937325	    423.86717528	   -319.94496436	      0.44748250	      0.00026069	     -0.00191500	     -0.93248807
      0.05000000	     35.31292906	    -30.63734221	    732.95760232	    564.99354798	  -1019.88008920	      1.46215956	     -2.29283805	     -8.29093202	  -4542.98432002	      0.10738068	      1.35176894	      2.16154816	    209.75205964	  -1554.91957122	      0.29406747	     -0.03151277	     -0.40755273	    488.35960376	      1.34205507	     -0.37830247	      5.36762083	    425.82754671	   -281.72231659	      0.36953497	     -0.00636927	      0.04678821	     22.78305856
      0.06000000	     35.24034749	    -30.80478518	    732.55253044	    565.03498512	  -1019.66297053	      1.46174241	     -2.26149629	     -8.17759978	  -4480.88435585	      0.17073866	      1.14218906	      2.05564583	    202.68823746	  -1607.26875040	      0.24992448	     -0.02629384	     -0.34005658	    407.48075919	      1.36558662	     -0.33638316	      5.14902197	    385.38630294	   -296.00847836	      0.38756779	     -0.00788575	      0.05792812	     28.20752504
      0.07000000	     32.98676073	    -30.78177443	    724.59767703	    566.25278929	  -1018.28767338	      1.45861787	     -2.37629979	     -8.59273075	  -4708.35377188	     -0.20058311	      3.50594098	      7.44805240	    404.80899561	  -1757.05614916	      0.13796421	     -0.01493234	     -0.19311897	    231.40933322	   -128.78522318	    -11.25195883	   -666.12080273	    249.84876041	   -588.81086415	      0.95098750	     -1.61789047	     11.88490520	   5787.23748078
      0.08000000	     51.09211739	    -37.73102484	    731.86931458	    567.04031570	  -1019.52700460	      1.46048218	     -0.33608186	     -1.21527635	   -665.90600467	      2.94245816	      1.17349959	     -3.24377177	    639.44021910	  -2107.53471177	     -0.13938186	      0.06220846	      0.80453817	   -964.05671056	   -557.72873370	    577.41247426	  -1912.77150939	    280.02094415	   -600.94181013	      0.98433509	     -0.85735605	      6.29807489	   3066.78550805
      0.09000000	     38.28417197	    -31.24994991	    735.17320456	    565.06962844	  -1020.16197569	      1.46263561	     -2.35058782	     -8.49975593	  -4657.40857645	     -0.18562820	      1.16059593	      3.03274265	    169.92422902	  -1532.25672715	      0.31041038	     -0.02698783	     -0.34903187	    418.23560941	   -613.10771280	    433.81062053	  -2118.05054357	    278.26865293	   -601.30818663	      0.98459763	     -4.44807029	     32.67519935	  15910.86636143
      0.10000000	     38.42912835	    -32.75926197	    733.03244905	    565.46231953	  -1019.77402727	      1.46172941	     -1.77471088	     -6.41737746	  -3516.37730417	     -0.67407070	      1.65909388	      3.56159608	    243.53183204	  -1696.81135596	      0.17783368	     -0.02642367	     -0.34173570	    409.49280196	   -497.80847529	    600.61259446	  -1983.99554430	    264.76169748	   -628.84204155	      1.03736624	     -2.70257095	     19.85288876	   9667.16856288
      0.11000000	     34.89818479	    -30.86262762	    732.25894833	    565.09204762	  -1019.28059113	      1.46101577	     -2.28511521	     -8.26300611	  -4527.68242707	     -0.43826464	      1.23566685	      1.11200464	    -96.18355634	  -1363.57237125	      0.43401188	     -0.03817077	     -0.49366017	    591.53985843	   -437.51124094	    634.37954450	  -1938.14710546	    255.96642178	   -645.84415006	      1.06982363	     -0.44079352	      3.23803703	   1576.73022395
